<svg xmlns="http://www.w3.org/2000/svg" version="1.0" viewBox="0 0 1600 368"><path fill-opacity=".3" d="M1162.5 267.5c0 32.4.1 45.6.2 29.2.2-16.4.2-43 0-59-.1-16.1-.2-2.7-.2 29.8m90.8-39.5c0 3 .2 4.3.4 2.7.2-1.5.2-3.9 0-5.5-.2-1.5-.4-.2-.4 2.8m-514.5 50.7c.7.3 1.6.2 1.9-.1.4-.3-.2-.6-1.3-.5-1.1 0-1.4.3-.6.6"/><path fill-opacity=".4" d="M184.3 125.7c8.2.2 21.2.2 29 0 7.8-.1 1.2-.3-14.8-.3-15.9 0-22.3.2-14.2.3m145 0c8.1.2 21.3.2 29.5 0 8.1-.1 1.4-.3-14.8-.3s-22.9.2-14.7.3m64 0c7 .2 18.4.2 25.5 0 7-.1 1.2-.3-12.8-.3s-19.8.2-12.7.3m446.5 0c1.8.2 4.5.2 6 0s0-.4-3.3-.4-4.5.2-2.7.4m147 0c1.8.2 4.5.2 6 0s0-.4-3.3-.4-4.5.2-2.7.4m212.5 0c7 .2 18.4.2 25.5 0 7-.1 1.2-.3-12.8-.3s-19.8.2-12.7.3m-729.4 19c-1.3 1.6-1.2 1.7.4.4s2.1-2.1 1.3-2.1c-.2 0-1 .8-1.7 1.7m575 40c-1.3 1.6-1.2 1.7.4.4s2.1-2.1 1.3-2.1c-.2 0-1 .8-1.7 1.7m-412.6 77.8c0 2.2.2 3 .4 1.7.2-1.2.2-3 0-4-.3-.9-.5.1-.4 2.3m795.2 12.5c6 6 11.2 11 11.5 11 .2 0-4.5-5-10.5-11-6-6.1-11.2-11-11.5-11-.2 0 4.5 4.9 10.5 11m-691.7 3.7c.7.3 1.6.2 1.9-.1.4-.3-.2-.6-1.3-.5-1.1 0-1.4.3-.6.6m622 0c.7.3 1.6.2 1.9-.1.4-.3-.2-.6-1.3-.5-1.1 0-1.4.3-.6.6"/><path fill-opacity=".6" d="M738.8 169.7c.7.3 1.6.2 1.9-.1.4-.3-.2-.6-1.3-.5-1.1 0-1.4.3-.6.6m617 0c.7.3 1.6.2 1.9-.1.4-.3-.2-.6-1.3-.5-1.1 0-1.4.3-.6.6m-34.4 14.5-1.9 2.3 2.3-1.9c2.1-1.8 2.7-2.6 1.9-2.6-.2 0-1.2 1-2.3 2.2m-433.9 86.3c0 30.8.1 43.5.2 28.3.2-15.2.2-40.4 0-56-.1-15.6-.2-3.1-.2 27.7M688.2 224c0 1.4.2 1.9.5 1.2.2-.6.2-1.8 0-2.5-.3-.6-.5-.1-.5 1.3m616.9 7.6c0 1.1.3 1.4.6.6.3-.7.2-1.6-.1-1.9-.3-.4-.6.2-.5 1.3M794.5 259c4.9 4.9 9.2 9 9.5 9 .2 0-3.6-4.1-8.5-9-4.9-5-9.2-9-9.5-9-.2 0 3.6 4 8.5 9m596.9 5.2-1.9 2.3 2.3-1.9c2.1-1.8 2.7-2.6 1.9-2.6-.2 0-1.2 1-2.3 2.2m-910.1 11.5c16.4.2 43 .2 59 0 16.1-.1 2.7-.2-29.8-.2-32.4 0-45.6.1-29.2.2"/><path fill-opacity=".7" d="M440.1 71.6c0 1.1.3 1.4.6.6.3-.7.2-1.6-.1-1.9-.3-.4-.6.2-.5 1.3m845.3 76.6-2.9 3.3 3.3-2.9c3-2.8 3.7-3.6 2.9-3.6-.2 0-1.6 1.5-3.3 3.2m-543.6 21.5c.7.3 1.6.2 1.9-.1.4-.3-.2-.6-1.3-.5-1.1 0-1.4.3-.6.6m369.7 98.8c0 31.9.1 45.1.2 29.3.2-15.8.2-41.9 0-58-.1-16.1-.2-3.2-.2 28.7m-224.4-54.9c0 1.1.3 1.4.6.6.3-.7.2-1.6-.1-1.9-.3-.4-.6.2-.5 1.3M615 221.5c1.3 1.4 2.6 2.5 2.8 2.5.3 0-.5-1.1-1.8-2.5s-2.6-2.5-2.8-2.5c-.3 0 .5 1.1 1.8 2.5m73.1-.9c0 1.1.3 1.4.6.6.3-.7.2-1.6-.1-1.9-.3-.4-.6.2-.5 1.3m0 7c0 1.1.3 1.4.6.6.3-.7.2-1.6-.1-1.9-.3-.4-.6.2-.5 1.3m-161.3 26.1c7.8.2 20.6.2 28.5 0 7.8-.1 1.4-.3-14.3-.3s-22.1.2-14.2.3M668 301.4c0 .2.8 1 1.8 1.7 1.5 1.3 1.6 1.2.3-.4s-2.1-2.1-2.1-1.3m-55.1 6.3c-1.3 1.6-1.2 1.7.4.4s2.1-2.1 1.3-2.1c-.2 0-1 .8-1.7 1.7"/><path fill-opacity=".8" d="M807 144.4c0 .2.8 1 1.8 1.7 1.5 1.3 1.6 1.2.3-.4s-2.1-2.1-2.1-1.3m6 6c0 .2.8 1 1.8 1.7 1.5 1.3 1.6 1.2.3-.4s-2.1-2.1-2.1-1.3m622.9 18.3-3.4 3.8 3.8-3.4c3.4-3.3 4.2-4.1 3.4-4.1-.2 0-1.9 1.7-3.8 3.7m-866.1 85c.7.3 1.6.2 1.9-.1.4-.3-.2-.6-1.3-.5-1.1 0-1.4.3-.6.6m242.6 44.5-1.9 2.3 2.3-1.9c1.2-1.1 2.2-2.1 2.2-2.3 0-.8-.8-.2-2.6 1.9m470.6 1.3c1.9 1.9 3.6 3.5 3.9 3.5s-1-1.6-2.9-3.5-3.6-3.5-3.9-3.5 1 1.6 2.9 3.5m144.4.7-1.9 2.3 2.3-1.9c2.1-1.8 2.7-2.6 1.9-2.6-.2 0-1.2 1-2.3 2.2m-683.6 29.5c.7.3 1.6.2 1.9-.1.4-.3-.2-.6-1.3-.5-1.1 0-1.4.3-.6.6"/><path fill-opacity=".9" d="M1178.2 71c0 1.4.2 1.9.5 1.2.2-.6.2-1.8 0-2.5-.3-.6-.5-.1-.5 1.3m-806.1.6c0 1.1.3 1.4.6.6.3-.7.2-1.6-.1-1.9-.3-.4-.6.2-.5 1.3m57.8 23.1-2.4 2.8 2.8-2.4c2.5-2.3 3.2-3.1 2.4-3.1-.2 0-1.4 1.2-2.8 2.7m806 0-2.4 2.8 2.8-2.4c1.5-1.4 2.7-2.6 2.7-2.8 0-.8-.8-.1-3.1 2.4m-493.1 24c.7.3 1.6.2 1.9-.1.4-.3-.2-.6-1.3-.5-1.1 0-1.4.3-.6.6M431.5 226c0 55.3.1 77.9.2 50.2.2-27.6.2-72.8 0-100.5-.1-27.6-.2-5-.2 50.3m491.3-99.3c.7.3 1.6.2 1.9-.1.4-.3-.2-.6-1.3-.5-1.1 0-1.4.3-.6.6m60.7 99.3c0 55.3.1 77.9.2 50.2.2-27.6.2-72.8 0-100.5-.1-27.6-.2-5-.2 50.3m254 0c0 55.3.1 77.9.2 50.2.2-27.6.2-72.8 0-100.5-.1-27.6-.2-5-.2 50.3M1007 140.4c0 .2.8 1 1.8 1.7 1.5 1.3 1.6 1.2.3-.4s-2.1-2.1-2.1-1.3m-534.1 2.3c-1.3 1.6-1.2 1.7.4.4.9-.7 1.7-1.5 1.7-1.7 0-.8-.8-.3-2.1 1.3m198 1c-1.3 1.6-1.2 1.7.4.4s2.1-2.1 1.3-2.1c-.2 0-1 .8-1.7 1.7m458.1-1.3c0 .2.8 1 1.8 1.7 1.5 1.3 1.6 1.2.3-.4s-2.1-2.1-2.1-1.3m293 1.9c0 .2 1.5 1.6 3.3 3.3l3.2 2.9-2.9-3.3c-2.8-3-3.6-3.7-3.6-2.9m-954.1 3.4c-1.3 1.6-1.2 1.7.4.4.9-.7 1.7-1.5 1.7-1.7 0-.8-.8-.3-2.1 1.3m342.1-.3c0 .2.8 1 1.8 1.7 1.5 1.3 1.6 1.2.3-.4s-2.1-2.1-2.1-1.3m-147.1 4.3c-1.3 1.6-1.2 1.7.4.4s2.1-2.1 1.3-2.1c-.2 0-1 .8-1.7 1.7m754.5 35.3c-8.3 8.3-14.8 15-14.5 15 .4 0 7.4-6.8 15.6-15 8.2-8.3 14.8-15 14.5-15s-7.3 6.8-15.6 15m-876.6-10.3c14.4.2 38 .2 52.5 0 14.4-.1 2.6-.2-26.3-.2s-40.7.1-26.2.2m395.5 0c6.4.2 17 .2 23.5 0 6.4-.1 1.1-.3-11.8-.3s-18.2.2-11.7.3m453.7 6.8c1.9 1.9 3.6 3.5 3.9 3.5s-1-1.6-2.9-3.5-3.6-3.5-3.9-3.5 1 1.6 2.9 3.5m-686.6-.3-1.9 2.3 2.3-1.9c1.2-1.1 2.2-2.1 2.2-2.3 0-.8-.8-.2-2.6 1.9m397.6 2.2c0 .2.8 1 1.8 1.7 1.5 1.3 1.6 1.2.3-.4s-2.1-2.1-2.1-1.3m-596 13c0 .2.8 1 1.8 1.7 1.5 1.3 1.6 1.2.3-.4s-2.1-2.1-2.1-1.3m238.9 57.3c-1.3 1.6-1.2 1.7.4.4.9-.7 1.7-1.5 1.7-1.7 0-.8-.8-.3-2.1 1.3m-166 16c-1.3 1.6-1.2 1.7.4.4.9-.7 1.7-1.5 1.7-1.7 0-.8-.8-.3-2.1 1.3m856 10.5c2.8 3 4.1 5.1 3.6 6-.7 1-.5 1.1.6 0 1.1-1 .5-2-3.6-6l-5-4.7zm0 10.5c-1.3 1.6-1.2 1.7.4.4s2.1-2.1 1.3-2.1c-.2 0-1 .8-1.7 1.7m-698.1 37c.7.3 1.6.2 1.9-.1.4-.3-.2-.6-1.3-.5-1.1 0-1.4.3-.6.6m5 0c.7.3 1.6.2 1.9-.1.4-.3-.2-.6-1.3-.5-1.1 0-1.4.3-.6.6m612 0c.7.3 1.6.2 1.9-.1.4-.3-.2-.6-1.3-.5-1.1 0-1.4.3-.6.6m5 0c.7.3 1.6.2 1.9-.1.4-.3-.2-.6-1.3-.5-1.1 0-1.4.3-.6.6"/><g stroke-width="0"><path d="M401.5 38.1c-10.2 1.3-20.3 8.6-25.3 18.4-3.3 6.5-4.2 18.2-1.9 24.9 2.3 6.8 7.2 13.3 13 17.1 6.5 4.3 16.3 6.9 22.6 6 11-1.6 21.8-9.2 26.8-19 3.7-7.2 4.3-17.9 1.3-25.7-5.4-14.6-20.9-23.7-36.5-21.7m806 0c-6.4.8-13.9 4.6-18.9 9.6-14.7 14.5-12.3 39.5 4.7 50.8 6.6 4.4 16.2 6.9 22.7 6 12-1.6 23.8-10.9 27.9-21.8 8.7-23.5-11.1-47.9-36.4-44.6m-479.8 81c-35 3.8-65.6 25.6-80.2 57.2-13.6 29.4-13.6 65.7-.1 94.2 14.5 30.8 39.8 50.6 72.6 57.1 9.6 1.9 28.3 1.9 38 0 24-4.6 45.4-17.7 61.4-37.5l2.7-3.4-18.2-18.3-18.3-18.3-2.7 4.7c-3.5 6.1-13.2 15.3-19.5 18.5-2.8 1.4-7.8 3.3-11.1 4.1-8.6 2.3-25.3 2-25.3-.3 0-.4 21.4-26.5 47.6-58l47.5-57.3-2.7-4c-4.5-6.5-18.5-18.9-27.3-24.2-19.1-11.5-42.9-16.9-64.4-14.5m21.3 51c2.7.6 5 1.3 5 1.5 0 .9-59.1 78.9-59.9 79.2-.5.1-1.3-1-1.9-2.5-2.7-7-3.6-12.6-3.6-23.8 0-13.4 1.4-20 6.7-29.8 9.8-18.5 32.8-29.1 53.7-24.6m596.5-51c-26.2 3-51.9 18-68.5 40.1-24.2 32.1-29.6 76.5-13.6 110.4 12.3 25.9 31.9 44 57.7 53.5 11.8 4.3 21.6 6 34.9 6 24.6 0 46.4-7.9 65.2-23.5 6.4-5.3 16.8-16.8 16.8-18.5 0-.5-7.9-9-17.6-19l-17.6-18.1-3.7 5.7c-17.6 27.2-56.1 31.4-78.9 8.7-6.9-7-12.5-17.2-14.2-26.3-3.5-18.7 2.5-40.1 15-53.5 23-24.5 63-18.8 78.7 11.1 1.6 2.9 3 5.3 3.3 5.3s8.6-8.1 18.4-17.9l17.9-17.9-4.5-6.4c-12.3-17.1-32.8-31.2-54.3-37.1-5.4-1.5-22.8-3.8-26.5-3.6-.8.1-4.6.5-8.5 1m-287.2 4.3c-14.8 2.8-27.6 8.4-39 17l-7.2 5.4-8.6-9.9-8.6-9.9H984v200h50l.2-62.2.3-62.3 2.8-6.1c3.6-7.7 11.3-15.4 19.2-19.1 5.4-2.5 7.1-2.8 16.5-2.8s11.1.3 16.1 2.8c11.4 5.6 19.3 15.5 21.8 27.5.7 3.5 1.1 24.8 1.1 63.7V326h50.1l-.3-64.3c-.4-62.7-.4-64.4-2.6-72.1-8.9-32-33.6-56.6-64.7-64.6-10.3-2.7-26.7-3.4-36.2-1.6M170 126.2c.1.8 8.1 22 40.3 106.3l35.6 93h50.5l31.3-82c34.9-91.6 33.7-88.3 32.4-87-.4.6-16.2 23.9-35 52-18.8 28-34.5 50.9-34.8 50.8-.4 0-3.5-5.4-6.9-11.8s-6.4-11.3-6.6-10.8c-.3.4-1.6 3.9-2.8 7.7-2.2 6.8-2.3 6.9-3.6 4.3-.8-1.4-2.6-5.9-4-9.9-1.5-4-2.8-7.4-2.9-7.6-.2-.2-7.3 5.2-15.9 11.9-8.7 6.7-15.8 12-16 11.8s3.5-8.9 8.2-19.2c8.1-17.8 8.7-18.9 12.8-21.3l4.3-2.5-3.4-9.7c-1.9-5.3-8.6-24.5-14.9-42.6-6.4-18.1-11.6-33.1-11.6-33.3s-12.8-.3-28.5-.3-28.5.1-28.5.2"/><path d="M308.7 144.7c-3.6 10.4-6.4 18.9-6.3 19 0 .1 13.9-3.3 30.8-7.5l30.7-7.5 4-10.9c2.3-6 4.1-11.1 4.1-11.3 0-.3-12.8-.5-28.4-.5h-28.4zM381 226v100h50V126h-50zm127.5-99c-8.6 1-14.1 2.7-21.5 6.6-23.9 12.5-37.5 38.2-33.9 63.9 2.9 21.1 15.3 38.7 33.9 48.5 12.6 6.5 16.2 7 52.5 7 33.5 0 38.3.5 41 4.3 3.4 4.9.5 13.7-5.5 16.9-3.3 1.7-7.2 1.8-63.2 1.8H452v50.1l63.8-.4c55.8-.3 64.4-.5 69.2-2 21-6.3 37.8-22.8 44.3-43.2 2.9-9.3 3.1-26.3.3-34.5-6.7-20-21.2-33.7-42.4-40.2-6.1-1.9-9.8-2.1-40.7-2.5-21.3-.2-35-.8-36.8-1.5-6.4-2.5-9.4-13.1-5.4-19.2 4.2-6.3 1.8-6.1 60.9-6.4l53.8-.3V126l-52.2.1c-28.8.1-55 .5-58.3.9M837 226v100h49.9l.3-59.7.3-59.8 2.3-5.7c4.9-12.2 17.5-21.8 30.8-23.8 3.8-.5 16.7-1 28.7-1H971v-50.3l-28.2.6c-26.1.5-29.1.7-38 3-11.1 2.9-25.7 10.1-33.5 16.4-2.9 2.4-5.4 4.3-5.6 4.3-.3 0-4.2-5.4-8.8-12l-8.4-12H837zm350 0v100h50V126h-50zm-885.2-39.6c-7.7 3.1-10.7 5-9.6 6.1.3.4 4.8-1.7 9.9-4.4 10.8-5.8 10.7-6.2-.3-1.7"/></g><path fill-opacity=".5" d="M380.5 226c0 55.3.1 77.9.2 50.2.2-27.6.2-72.8 0-100.5-.1-27.6-.2-5-.2 50.3m456 0c0 55.3.1 77.9.2 50.2.2-27.6.2-72.8 0-100.5-.1-27.6-.2-5-.2 50.3m134.9-74.5c0 14.3.2 20 .3 12.7.2-7.3.2-19 0-26-.1-7-.3-1-.3 13.3m215.1 74.5c0 55.3.1 77.9.2 50.2.2-27.6.2-72.8 0-100.5-.1-27.6-.2-5-.2 50.3m-520.6-78.3c-1.3 1.6-1.2 1.7.4.4.9-.7 1.7-1.5 1.7-1.7 0-.8-.8-.3-2.1 1.3m639.3 79.8c0 1.6.2 2.2.5 1.2.2-.9.2-2.3 0-3-.3-.6-.5.1-.5 1.8m96.2 22.7c-.4.7-.3.9.1.5.5-.4 4.3 2.5 8.4 6.5l7.6 7.3-7.5-7.8c-4.1-4.2-7.5-7.7-7.7-7.7-.1 0-.5.6-.9 1.2M812.5 277c4.9 4.9 9.2 9 9.5 9 .2 0-3.6-4.1-8.5-9-4.9-5-9.2-9-9.5-9-.2 0 3.6 4 8.5 9"/><path fill-opacity=".2" d="M1068.8 121.7c.6.2 1.8.2 2.5 0 .6-.3.1-.5-1.3-.5s-1.9.2-1.2.5m6 0c.6.2 1.8.2 2.5 0 .6-.3.1-.5-1.3-.5s-1.9.2-1.2.5m-455.4 29.8c0 14.3.2 20 .3 12.7.2-7.3.2-19 0-26-.1-7-.3-1-.3 13.3m806.1-4.5c1 1.1 2 2 2.3 2s-.3-.9-1.3-2-2-2-2.3-2 .3.9 1.3 2m-353.7 26.7c.6.2 1.8.2 2.5 0 .6-.3.1-.5-1.3-.5s-1.9.2-1.2.5m337.7 22.5-7 7.3 7.3-7c6.7-6.4 7.7-7.5 6.9-7.5-.1 0-3.4 3.3-7.2 7.2m-881.7 6.5c7.9.2 20.5.2 28 0 7.5-.1 1.1-.3-14.3-.3s-21.6.2-13.7.3m634.3 4.9c0 1.1.3 1.4.6.6.3-.7.2-1.6-.1-1.9-.3-.4-.6.2-.5 1.3m-127.9 60.1-.2 58.3-25.7.3-25.8.2 25.8.3c19.9.1 25.9-.1 26.2-1 .3-.7.4-27.2.3-58.8l-.3-57.5zM636.3 224c0 2.5.2 3.5.4 2.2.2-1.2.2-3.2 0-4.5-.2-1.2-.4-.2-.4 2.3M258.2 326.7c7 .2 18.7.2 26 0 7.3-.1 1.6-.3-12.7-.3s-20.3.2-13.3.3m135 0c7 .2 18.7.2 26 0 7.3-.1 1.6-.3-12.7-.3s-20.3.2-13.3.3m88.6 0c16.6.2 43.8.2 60.5 0 16.6-.1 3-.2-30.3-.2s-46.9.1-30.2.2m367.5 0c7 .2 18.4.2 25.5 0 7-.1 1.2-.3-12.8-.3s-19.8.2-12.7.3m273.9 0c7 .2 18.7.2 26 0 7.3-.1 1.6-.3-12.7-.3s-20.3.2-13.3.3m76 0c7 .2 18.7.2 26 0 7.3-.1 1.6-.3-12.7-.3s-20.3.2-13.3.3"/><path fill-opacity=".1" d="M430.5 47c1 1.1 2 2 2.3 2s-.3-.9-1.3-2-2-2-2.3-2 .3.9 1.3 2m806 0c1 1.1 2 2 2.3 2s-.3-.9-1.3-2-2-2-2.3-2 .3.9 1.3 2m-830.7 58.7c.7.3 1.6.2 1.9-.1.4-.3-.2-.6-1.3-.5-1.1 0-1.4.3-.6.6m806 0c.7.3 1.6.2 1.9-.1.4-.3-.2-.6-1.3-.5-1.1 0-1.4.3-.6.6M813.5 150c1 1.1 2 2 2.3 2s-.3-.9-1.3-2-2-2-2.3-2 .3.9 1.3 2m614.5 27.7-11.5 11.8 11.8-11.5c6.4-6.3 11.7-11.6 11.7-11.7 0-.8-1.3.5-12 11.4m-328.5 7.3c1 1.1 2 2 2.3 2s-.3-.9-1.3-2-2-2-2.3-2 .3.9 1.3 2m-463.4 33.6c0 1.1.3 1.4.6.6.3-.7.2-1.6-.1-1.9-.3-.4-.6.2-.5 1.3m0 11c0 1.1.3 1.4.6.6.3-.7.2-1.6-.1-1.9-.3-.4-.6.2-.5 1.3m174.8 71.1-2.4 2.8 2.8-2.4c1.5-1.4 2.7-2.6 2.7-2.8 0-.8-.8-.1-3.1 2.4m471.6-.7c1 1.1 2 2 2.3 2s-.3-.9-1.3-2-2-2-2.3-2 .3.9 1.3 2"/><path fill="#004000" d="M289.6 259.2c.3.5 1 .6 1.5.3 1.3-.9 1.1-1.2-.6-1.2-.8 0-1.2.4-.9.9"/><path fill="green" d="M306.3 163.4c-30.9 7.8-56.5 14.4-56.8 14.8-.3.3 2 5.7 5.1 12l5.7 11.5 16.1-6.2c28.5-10.8 35.9-13.5 36.3-13.1.2.2-4.3 2.8-9.9 5.8-5.7 3-14.6 7.9-19.8 10.8s-15.1 8.1-22 11.6l-12.4 6.3-8.2 18.3c-4.5 10.1-8.1 18.4-7.9 18.6.4.4 25.6-19.1 33-25.5 2.7-2.4 5.3-4.3 5.7-4.3s3.7 5.9 7.3 13.2c6.6 13.1 11.4 21.8 12 21.8.4 0 70.7-104.7 72.4-107.8.6-1.2.8-2.2.4-2.1-.4 0-26.1 6.5-57 14.3"/></svg>
